<svg width="48" height="48" viewBox="0 0 48 48" fill="none" xmlns="http://www.w3.org/2000/svg">
<path fill-rule="evenodd" clip-rule="evenodd" d="M41.1442 10.38H44.5722C44.5722 12.78 44.5722 16.124 41.8282 17.754C42.4282 19.21 42.7722 20.754 42.7722 22.296C42.7722 25.124 42.7722 29.068 39.3442 31.724V39.438C39.3426 39.8924 39.1613 40.3278 38.8397 40.6489C38.5182 40.9701 38.0827 41.1509 37.6282 41.152H32.4862C31.7142 41.152 31.1142 40.638 30.8582 39.952L29.5722 36.012H20.0582L18.7722 39.952C18.5142 40.638 17.9142 41.152 17.1442 41.152H12.0002C11.5461 41.1504 11.1111 40.9693 10.79 40.6482C10.4689 40.3271 10.2878 39.8921 10.2862 39.438V31.724C9.25822 31.038 8.40022 30.354 7.62822 29.152H5.14222C4.68813 29.1504 4.25308 28.9693 3.93199 28.6482C3.61089 28.3271 3.4298 27.8921 3.42822 27.438V18.868C3.4298 18.4139 3.61089 17.9789 3.93199 17.6578C4.25308 17.3367 4.68813 17.1556 5.14222 17.154H7.37222C8.02819 15.513 9.05497 14.0461 10.3722 12.868V8.57999C10.3722 7.97999 10.6282 7.46599 11.1442 7.12199C11.5722 6.77999 12.2582 6.77999 12.7722 7.03599L18.9442 10.122C24.8582 7.72199 31.2842 8.06599 36.3442 11.322C37.8415 12.2389 39.1502 13.4329 40.2002 14.84C40.9722 14.24 41.1422 12.956 41.1422 10.384L41.1442 10.38ZM36.0002 30.954C36.0002 30.354 36.2582 29.84 36.7722 29.498C39.0862 28.04 39.4282 26.24 39.3442 22.384C39.3442 19.298 37.4582 16.212 34.3722 14.24C30.0862 11.498 24.5142 11.326 19.4582 13.64C19.2361 13.7666 18.9849 13.8332 18.7292 13.8332C18.4736 13.8332 18.2223 13.7666 18.0002 13.64L13.6282 11.41V13.81C13.6282 14.41 13.3722 14.924 12.8582 15.268C12.8582 15.268 10.8002 16.638 10.1142 19.382C10.0306 19.7501 9.82347 20.0784 9.52727 20.3124C9.23107 20.5464 8.86367 20.6719 8.48622 20.668H6.77222V25.81H8.48622C9.17222 25.81 9.77222 26.152 10.0282 26.754C10.6622 27.942 11.2982 28.398 12.6082 29.342L12.9422 29.582C13.4582 29.838 13.7142 30.354 13.7142 30.952V37.812H15.9422L17.2282 33.868C17.4862 33.182 18.0862 32.668 18.8582 32.668H30.8582C31.6282 32.668 32.2282 33.182 32.4862 33.868L33.7722 37.81H36.0002V30.952V30.954ZM18.4282 18.528C19.3822 17.5686 20.518 16.8091 21.769 16.294C23.0201 15.7789 24.3613 15.5185 25.7142 15.528C27.3442 15.528 28.9722 15.956 30.4282 16.642C31.3722 17.156 32.2282 17.756 33.0002 18.528L30.6002 20.928C30.0641 20.4799 29.4907 20.0784 28.8862 19.728C27.9055 19.2216 26.818 18.9569 25.7142 18.956C23.8282 18.956 22.1142 19.642 20.8282 20.928L18.4282 18.528Z" fill="black"/>
</svg>
